<?xml version="1.0" standalone="no"?>
<!DOCTYPE svg PUBLIC "-//W3C//DTD SVG 20010904//EN"
 "http://www.w3.org/TR/2001/REC-SVG-20010904/DTD/svg10.dtd">
<svg version="1.0" xmlns="http://www.w3.org/2000/svg"
 width="768.000000pt" height="768.000000pt" viewBox="0 0 768.000000 768.000000"
 preserveAspectRatio="xMidYMid meet">

<g transform="translate(0.000000,768.000000) scale(0.100000,-0.100000)"
fill="#000000" stroke="none">
<path d="M1625 3684 c-4 -22 -8 -43 -9 -49 -2 -5 9 -24 24 -41 19 -22 43 -88
93 -256 37 -124 67 -232 67 -240 0 -9 6 -21 14 -27 9 -8 2 27 -19 101 -18 62
-61 210 -95 328 -34 118 -64 217 -65 219 -2 1 -7 -14 -10 -35z"/>
<path d="M2181 3524 c0 -11 3 -14 6 -6 3 7 2 16 -1 19 -3 4 -6 -2 -5 -13z"/>
<path d="M3500 3283 c0 -4 16 -24 35 -43 20 -20 47 -63 60 -96 28 -67 34 -42
9 33 -20 61 -59 113 -85 113 -10 0 -19 -3 -19 -7z"/>
<path d="M5180 3271 c-6 -12 -10 -29 -8 -39 2 -12 7 -10 21 12 13 19 16 31 9
38 -7 7 -14 3 -22 -11z"/>
<path d="M2628 3252 c-24 -27 -60 -102 -74 -157 -20 -74 -16 -99 5 -33 17 53
46 111 85 170 20 30 7 47 -16 20z"/>
<path d="M2877 3263 c-3 -5 3 -22 14 -39 34 -50 72 -127 85 -174 7 -25 13 -36
13 -25 3 77 -90 274 -112 238z"/>
<path d="M5397 3263 c-3 -5 8 -29 24 -53 16 -24 36 -64 44 -89 l15 -46 -6 50
c-9 71 -61 164 -77 138z"/>
<path d="M5807 3253 c-4 -3 -7 -22 -6 -42 l1 -36 13 35 c7 19 14 38 14 43 1 9
-13 9 -22 0z"/>
<path d="M5120 3241 c0 -6 4 -13 10 -16 6 -3 7 1 4 9 -7 18 -14 21 -14 7z"/>
<path d="M6060 3243 c0 -5 9 -30 20 -58 12 -33 19 -42 20 -27 0 24 -25 92 -34
92 -4 0 -6 -3 -6 -7z"/>
<path d="M3339 3196 c-11 -26 -22 -64 -25 -84 -2 -20 -2 -30 2 -22 3 8 17 43
31 78 30 73 23 98 -8 28z"/>
<path d="M6102 3110 c0 -14 2 -19 5 -12 2 6 2 18 0 25 -3 6 -5 1 -5 -13z"/>
<path d="M1660 3062 c0 -5 19 -19 43 -32 55 -30 134 -105 156 -150 10 -19 29
-71 42 -115 13 -44 25 -73 27 -63 2 9 -13 68 -33 131 -34 107 -40 119 -86 162
-61 57 -149 96 -149 67z"/>
<path d="M3302 3050 c0 -14 2 -19 5 -12 2 6 2 18 0 25 -3 6 -5 1 -5 -13z"/>
<path d="M3621 3054 c0 -11 3 -14 6 -6 3 7 2 16 -1 19 -3 4 -6 -2 -5 -13z"/>
<path d="M5195 3015 c-34 -36 -65 -110 -65 -154 1 -23 2 -22 14 10 18 52 52
104 87 133 16 14 29 29 29 35 0 22 -34 10 -65 -24z"/>
<path d="M5471 3014 c0 -11 3 -14 6 -6 3 7 2 16 -1 19 -3 4 -6 -2 -5 -13z"/>
<path d="M3686 2970 c-30 -69 -48 -75 -228 -75 l-158 0 0 -45 c0 -27 4 -40 8
-32 15 22 74 32 193 32 100 0 120 3 141 20 25 19 72 113 66 131 -2 6 -12 -8
-22 -31z"/>
<path d="M5451 2945 c0 -11 7 -36 15 -55 l14 -35 -4 44 c-4 44 -27 85 -25 46z"/>
<path d="M6497 2838 c-22 -12 -47 -60 -47 -90 0 -21 2 -20 20 9 10 18 31 39
45 49 14 9 25 20 25 24 0 13 -25 18 -43 8z"/>
<path d="M3101 2794 c0 -11 3 -14 6 -6 3 7 2 16 -1 19 -3 4 -6 -2 -5 -13z"/>
<path d="M2430 2769 c0 -23 35 -122 56 -156 42 -68 120 -133 159 -133 27 0 16
15 -40 55 -66 49 -119 116 -151 193 -13 31 -24 50 -24 41z"/>
<path d="M3077 2728 c-27 -71 -90 -151 -151 -193 -57 -39 -69 -55 -41 -55 65
0 167 117 204 233 18 55 8 68 -12 15z"/>
<path d="M1630 2742 c0 -5 14 -19 31 -31 l31 -23 -7 23 c-4 13 -13 27 -19 31
-15 10 -36 10 -36 0z"/>
<path d="M3205 2700 c18 -89 73 -167 147 -210 49 -28 116 -42 104 -21 -3 5
-31 23 -61 40 -81 46 -130 95 -166 164 -25 51 -30 56 -24 27z"/>
<path d="M5035 2670 c21 -107 113 -220 180 -220 30 0 15 27 -25 45 -52 23 -94
72 -132 149 -24 50 -28 55 -23 26z"/>
<path d="M6424 2671 c19 -36 42 -49 59 -32 8 8 8 11 0 11 -6 0 -26 12 -44 27
l-32 27 17 -33z"/>
<path d="M1270 2686 c0 -5 12 -30 27 -58 22 -40 28 -46 36 -33 7 13 2 25 -19
48 -16 18 -32 36 -36 42 -5 5 -8 5 -8 1z"/>
<path d="M4120 2674 c-2 -57 78 -174 120 -174 30 0 24 12 -25 53 -25 21 -56
59 -70 85 -13 26 -24 42 -25 36z"/>
<path d="M1700 2585 c-36 -37 -35 -62 1 -29 23 21 43 53 37 60 -3 2 -20 -12
-38 -31z"/>
<path d="M1943 2559 c-20 -45 -20 -50 -5 -48 43 4 51 -4 103 -103 126 -241
283 -362 484 -375 99 -7 91 5 -25 37 -163 45 -279 118 -365 231 -45 60 -155
269 -155 297 0 27 -17 9 -37 -39z"/>
<path d="M6125 2570 c12 -59 41 -116 86 -165 43 -46 104 -85 134 -85 24 0 10
16 -51 56 -65 43 -113 100 -149 174 -23 47 -25 50 -20 20z"/>
<path d="M5462 2564 c-12 -27 -11 -36 2 -61 21 -42 40 -55 78 -51 22 2 34 9
36 21 3 14 -4 17 -47 17 l-50 0 -3 53 -3 52 -13 -31z"/>
<path d="M1367 2574 c-12 -12 -8 -54 6 -54 27 0 42 19 31 37 -12 20 -27 26
-37 17z"/>
<path d="M4536 2557 l-19 -28 30 -37 c25 -31 36 -37 69 -37 29 0 40 4 42 18 3
14 -4 17 -47 17 l-50 0 -3 48 -3 47 -19 -28z"/>
<path d="M6785 2474 c-11 -20 -39 -53 -62 -74 -45 -39 -51 -50 -30 -50 20 0
84 71 102 114 21 49 15 55 -10 10z"/>
<path d="M3670 2486 c-49 -13 -61 -39 -22 -44 35 -5 82 17 82 39 0 21 1 21
-60 5z"/>
<path d="M2190 2475 c0 -19 46 -38 71 -30 11 4 24 15 29 26 10 18 7 19 -45 19
-43 0 -55 -3 -55 -15z"/>
<path d="M3872 2473 c5 -27 54 -38 83 -19 39 26 30 36 -31 36 -46 0 -55 -3
-52 -17z"/>
<path d="M5702 2473 c5 -27 54 -38 83 -19 39 26 30 36 -31 36 -46 0 -55 -3
-52 -17z"/>
<path d="M1301 2421 c-10 -17 -9 -21 3 -21 20 0 31 19 18 32 -7 7 -14 3 -21
-11z"/>
<path d="M4885 2337 c-19 -34 -48 -64 -80 -85 -49 -33 -76 -72 -40 -58 9 3 21
6 25 6 18 0 82 64 99 99 17 33 35 91 29 91 -2 -1 -16 -24 -33 -53z"/>
<path d="M4575 2212 c-2 -3 0 -13 6 -23 6 -13 21 -19 44 -19 37 0 52 12 32 28
-13 11 -74 21 -82 14z"/>
<path d="M1826 1650 c3 -14 10 -29 15 -34 14 -16 10 6 -7 34 l-15 25 7 -25z"/>
<path d="M2633 1580 c0 -41 2 -58 4 -37 2 20 2 54 0 75 -2 20 -4 3 -4 -38z"/>
<path d="M4580 1645 c0 -5 5 -17 10 -25 5 -8 10 -10 10 -5 0 6 -5 17 -10 25
-5 8 -10 11 -10 5z"/>
<path d="M5050 1621 c0 -14 28 -71 35 -71 5 0 -22 70 -30 79 -3 2 -5 -1 -5 -8z"/>
<path d="M5610 1623 c1 -12 39 -79 40 -70 0 12 -28 77 -34 77 -4 0 -6 -3 -6
-7z"/>
<path d="M2420 1604 c0 -17 17 -34 54 -56 13 -7 9 3 -13 31 -36 46 -41 48 -41
25z"/>
<path d="M4320 1610 c0 -15 108 -116 115 -108 3 2 -22 31 -55 63 -33 33 -60
53 -60 45z"/>
<path d="M1750 1605 c0 -5 5 -17 10 -25 5 -8 10 -10 10 -5 0 6 -5 17 -10 25
-5 8 -10 11 -10 5z"/>
<path d="M4021 1594 c0 -11 3 -14 6 -6 3 7 2 16 -1 19 -3 4 -6 -2 -5 -13z"/>
<path d="M2528 1575 c-21 -28 -23 -42 -5 -26 8 6 17 8 20 4 4 -3 7 6 7 20 0
33 0 33 -22 2z"/>
<path d="M1841 1558 c-9 -26 -9 -30 1 -20 9 9 16 8 29 -4 17 -15 17 -14 7 20
-14 44 -23 45 -37 4z"/>
<path d="M4610 1575 c0 -5 5 -17 10 -25 5 -8 10 -10 10 -5 0 6 -5 17 -10 25
-5 8 -10 11 -10 5z"/>
<path d="M2161 1544 c0 -11 3 -14 6 -6 3 7 2 16 -1 19 -3 4 -6 -2 -5 -13z"/>
<path d="M3292 1540 c0 -14 2 -19 5 -12 2 6 2 18 0 25 -3 6 -5 1 -5 -13z"/>
<path d="M5088 1534 c-13 -12 24 -54 46 -53 21 2 21 2 -1 6 -12 2 -25 15 -30
29 -5 14 -11 22 -15 18z"/>
<path d="M5650 1527 c0 -21 36 -49 57 -44 14 4 13 5 -5 6 -14 1 -26 10 -32 26
-10 27 -20 33 -20 12z"/>
<path d="M2038 1483 c7 -3 16 -2 19 1 4 3 -2 6 -13 5 -11 0 -14 -3 -6 -6z"/>
<path d="M2118 1483 c6 -2 18 -2 25 0 6 3 1 5 -13 5 -14 0 -19 -2 -12 -5z"/>
<path d="M2578 1483 c7 -3 16 -2 19 1 4 3 -2 6 -13 5 -11 0 -14 -3 -6 -6z"/>
<path d="M2658 1483 c7 -3 16 -2 19 1 4 3 -2 6 -13 5 -11 0 -14 -3 -6 -6z"/>
<path d="M2778 1483 c7 -3 16 -2 19 1 4 3 -2 6 -13 5 -11 0 -14 -3 -6 -6z"/>
<path d="M2978 1483 c6 -2 18 -2 25 0 6 3 1 5 -13 5 -14 0 -19 -2 -12 -5z"/>
<path d="M3168 1483 c6 -2 18 -2 25 0 6 3 1 5 -13 5 -14 0 -19 -2 -12 -5z"/>
<path d="M3258 1483 c7 -3 16 -2 19 1 4 3 -2 6 -13 5 -11 0 -14 -3 -6 -6z"/>
<path d="M3685 1480 c3 -5 12 -7 20 -3 21 7 19 13 -6 13 -11 0 -18 -4 -14 -10z"/>
<path d="M3820 1486 c0 -9 30 -14 35 -6 4 6 -3 10 -14 10 -12 0 -21 -2 -21 -4z"/>
<path d="M3985 1480 c3 -5 12 -7 20 -3 21 7 19 13 -6 13 -11 0 -18 -4 -14 -10z"/>
<path d="M4168 1483 c6 -2 18 -2 25 0 6 3 1 5 -13 5 -14 0 -19 -2 -12 -5z"/>
<path d="M4798 1483 c7 -3 16 -2 19 1 4 3 -2 6 -13 5 -11 0 -14 -3 -6 -6z"/>
<path d="M4918 1483 c7 -3 16 -2 19 1 4 3 -2 6 -13 5 -11 0 -14 -3 -6 -6z"/>
<path d="M5208 1483 c6 -2 18 -2 25 0 6 3 1 5 -13 5 -14 0 -19 -2 -12 -5z"/>
<path d="M5358 1483 c7 -3 16 -2 19 1 4 3 -2 6 -13 5 -11 0 -14 -3 -6 -6z"/>
<path d="M5478 1483 c6 -2 18 -2 25 0 6 3 1 5 -13 5 -14 0 -19 -2 -12 -5z"/>
<path d="M5788 1483 c7 -3 16 -2 19 1 4 3 -2 6 -13 5 -11 0 -14 -3 -6 -6z"/>
</g>
</svg>
